# Blender 5.0.0
# www.blender.org
mtllib water_wheel.mtl
o Cube
v -2.354100 -1.000000 -1.006566
v -2.354100 -1.000000 -1.006566
v -2.354100 -1.000000 1.006566
v -2.354100 -1.000000 1.006566
v 2.354100 1.000000 -1.006566
v 2.354100 -1.000000 -1.006566
v 2.354100 1.000000 1.006566
v 2.354100 -1.000000 1.006566
v 2.354100 1.000000 -1.006566
v 2.354100 1.000000 1.006566
v -2.354100 1.000000 -1.006566
v -2.354100 1.000000 1.006566
v -2.354100 -1.000000 1.006566
v -2.354100 1.000000 1.006566
v 2.354100 -1.000000 1.006566
v 2.354100 1.000000 1.006566
v -2.354100 1.000000 1.006566
v -2.354100 -1.000000 -1.006566
v -2.354100 1.000000 -1.006566
v -2.354100 1.000000 -1.006566
v 2.354100 -1.000000 -1.006566
v 2.354100 1.000000 -1.006566
v 2.354100 -1.000000 1.006566
v 2.354100 -1.000000 -1.006566
v -2.000000 -0.600000 -4.822167
v -2.000000 -0.600000 -4.822167
v -2.000000 -0.600000 4.822167
v -2.000000 -0.600000 4.822167
v -1.000000 0.600000 -4.822167
v -1.000000 -0.600000 -4.822167
v -1.000000 0.600000 4.822167
v -1.000000 -0.600000 4.822167
v -1.000000 0.600000 -4.822167
v -1.000000 0.600000 4.822167
v -2.000000 0.600000 -4.822167
v -2.000000 0.600000 4.822167
v -2.000000 -0.600000 4.822167
v -2.000000 0.600000 4.822167
v -1.000000 -0.600000 4.822167
v -1.000000 0.600000 4.822167
v -2.000000 0.600000 4.822167
v -2.000000 -0.600000 -4.822167
v -2.000000 0.600000 -4.822167
v -2.000000 0.600000 -4.822167
v -1.000000 -0.600000 -4.822167
v -1.000000 0.600000 -4.822167
v -1.000000 -0.600000 4.822167
v -1.000000 -0.600000 -4.822167
v 1.000000 -0.600000 -4.822167
v 1.000000 -0.600000 -4.822167
v 1.000000 -0.600000 4.822167
v 1.000000 -0.600000 4.822167
v 2.000000 0.600000 -4.822167
v 2.000000 -0.600000 -4.822167
v 2.000000 0.600000 4.822167
v 2.000000 -0.600000 4.822167
v 2.000000 0.600000 -4.822167
v 2.000000 0.600000 4.822167
v 1.000000 0.600000 -4.822167
v 1.000000 0.600000 4.822167
v 1.000000 -0.600000 4.822167
v 1.000000 0.600000 4.822167
v 2.000000 -0.600000 4.822167
v 2.000000 0.600000 4.822167
v 1.000000 0.600000 4.822167
v 1.000000 -0.600000 -4.822167
v 1.000000 0.600000 -4.822167
v 1.000000 0.600000 -4.822167
v 2.000000 -0.600000 -4.822167
v 2.000000 0.600000 -4.822167
v 2.000000 -0.600000 4.822167
v 2.000000 -0.600000 -4.822167
v 1.000000 -4.822167 0.600000
v 1.000000 -4.822167 0.600000
v 1.000000 4.822167 0.600000
v 1.000000 4.822167 0.600000
v 2.000000 -4.822167 -0.600000
v 2.000000 -4.822167 0.600000
v 2.000000 4.822167 -0.600000
v 2.000000 4.822167 0.600000
v 2.000000 -4.822167 -0.600000
v 2.000000 4.822167 -0.600000
v 1.000000 -4.822167 -0.600000
v 1.000000 4.822167 -0.600000
v 1.000000 4.822167 0.600000
v 1.000000 4.822167 -0.600000
v 2.000000 4.822167 0.600000
v 2.000000 4.822167 -0.600000
v 1.000000 4.822167 -0.600000
v 1.000000 -4.822167 0.600000
v 1.000000 -4.822167 -0.600000
v 1.000000 -4.822167 -0.600000
v 2.000000 -4.822167 0.600000
v 2.000000 -4.822167 -0.600000
v 2.000000 4.822167 0.600000
v 2.000000 -4.822167 0.600000
v -2.000000 -4.822167 0.600000
v -2.000000 -4.822167 0.600000
v -2.000000 4.822167 0.600000
v -2.000000 4.822167 0.600000
v -1.000000 -4.822167 -0.600000
v -1.000000 -4.822167 0.600000
v -1.000000 4.822167 -0.600000
v -1.000000 4.822167 0.600000
v -1.000000 -4.822167 -0.600000
v -1.000000 4.822167 -0.600000
v -2.000000 -4.822167 -0.600000
v -2.000000 4.822167 -0.600000
v -2.000000 4.822167 0.600000
v -2.000000 4.822167 -0.600000
v -1.000000 4.822167 0.600000
v -1.000000 4.822167 -0.600000
v -2.000000 4.822167 -0.600000
v -2.000000 -4.822167 0.600000
v -2.000000 -4.822167 -0.600000
v -2.000000 -4.822167 -0.600000
v -1.000000 -4.822167 0.600000
v -1.000000 -4.822167 -0.600000
v -1.000000 4.822167 0.600000
v -1.000000 -4.822167 0.600000
v -2.000000 -2.985524 3.834051
v -2.000000 -2.985524 3.834051
v -2.000000 3.834052 -2.985522
v -2.000000 3.834052 -2.985522
v -1.000000 -3.834052 2.985522
v -1.000000 -2.985524 3.834051
v -1.000000 2.985524 -3.834051
v -1.000000 3.834052 -2.985522
v -1.000000 -3.834052 2.985522
v -1.000000 2.985524 -3.834051
v -2.000000 -3.834052 2.985522
v -2.000000 2.985524 -3.834051
v -2.000000 3.834052 -2.985522
v -2.000000 2.985524 -3.834051
v -1.000000 3.834052 -2.985522
v -1.000000 2.985524 -3.834051
v -2.000000 2.985524 -3.834051
v -2.000000 -2.985524 3.834051
v -2.000000 -3.834052 2.985522
v -2.000000 -3.834052 2.985522
v -1.000000 -2.985524 3.834051
v -1.000000 -3.834052 2.985522
v -1.000000 3.834052 -2.985522
v -1.000000 -2.985524 3.834051
v 1.000000 -2.985524 3.834051
v 1.000000 -2.985524 3.834051
v 1.000000 3.834052 -2.985522
v 1.000000 3.834052 -2.985522
v 2.000000 -3.834052 2.985522
v 2.000000 -2.985524 3.834051
v 2.000000 2.985524 -3.834051
v 2.000000 3.834052 -2.985522
v 2.000000 -3.834052 2.985522
v 2.000000 2.985524 -3.834051
v 1.000000 -3.834052 2.985522
v 1.000000 2.985524 -3.834051
v 1.000000 3.834052 -2.985522
v 1.000000 2.985524 -3.834051
v 2.000000 3.834052 -2.985522
v 2.000000 2.985524 -3.834051
v 1.000000 2.985524 -3.834051
v 1.000000 -2.985524 3.834051
v 1.000000 -3.834052 2.985522
v 1.000000 -3.834052 2.985522
v 2.000000 -2.985524 3.834051
v 2.000000 -3.834052 2.985522
v 2.000000 3.834052 -2.985522
v 2.000000 -2.985524 3.834051
v 1.000000 -3.834051 -2.985523
v 1.000000 -3.834051 -2.985523
v 1.000000 2.985523 3.834052
v 1.000000 2.985523 3.834052
v 2.000000 -2.985523 -3.834052
v 2.000000 -3.834051 -2.985523
v 2.000000 3.834051 2.985523
v 2.000000 2.985523 3.834052
v 2.000000 -2.985523 -3.834052
v 2.000000 3.834051 2.985523
v 1.000000 -2.985523 -3.834052
v 1.000000 3.834051 2.985523
v 1.000000 2.985523 3.834052
v 1.000000 3.834051 2.985523
v 2.000000 2.985523 3.834052
v 2.000000 3.834051 2.985523
v 1.000000 3.834051 2.985523
v 1.000000 -3.834051 -2.985523
v 1.000000 -2.985523 -3.834052
v 1.000000 -2.985523 -3.834052
v 2.000000 -3.834051 -2.985523
v 2.000000 -2.985523 -3.834052
v 2.000000 2.985523 3.834052
v 2.000000 -3.834051 -2.985523
v -2.000000 -3.834051 -2.985523
v -2.000000 -3.834051 -2.985523
v -2.000000 2.985523 3.834052
v -2.000000 2.985523 3.834052
v -1.000000 -2.985523 -3.834052
v -1.000000 -3.834051 -2.985523
v -1.000000 3.834051 2.985523
v -1.000000 2.985523 3.834052
v -1.000000 -2.985523 -3.834052
v -1.000000 3.834051 2.985523
v -2.000000 -2.985523 -3.834052
v -2.000000 3.834051 2.985523
v -2.000000 2.985523 3.834052
v -2.000000 3.834051 2.985523
v -1.000000 2.985523 3.834052
v -1.000000 3.834051 2.985523
v -2.000000 3.834051 2.985523
v -2.000000 -3.834051 -2.985523
v -2.000000 -2.985523 -3.834052
v -2.000000 -2.985523 -3.834052
v -1.000000 -3.834051 -2.985523
v -1.000000 -2.985523 -3.834052
v -1.000000 2.985523 3.834052
v -1.000000 -3.834051 -2.985523
vn -0.0000 -1.0000 -0.0000
vn -0.0000 -0.0000 1.0000
vn -0.0000 -0.0000 -1.0000
vn -1.0000 -0.0000 -0.0000
vn 1.0000 -0.0000 -0.0000
vn -0.0000 1.0000 -0.0000
vn -0.0000 0.7071 0.7071
vn -0.0000 0.7071 -0.7071
vn -0.0000 -0.7071 0.7071
vn -0.0000 -0.7071 -0.7071
vt 0.375000 0.500000
vt 0.125000 0.750000
vt 0.125000 0.500000
vt 0.625000 0.750000
vt 0.375000 1.000000
vt 0.375000 0.750000
vt 0.625000 0.250000
vt 0.375000 0.250000
vt 0.625000 0.000000
vt 0.375000 0.000000
vt 0.625000 0.500000
vt 0.875000 0.500000
vt 0.625000 1.000000
vt 0.875000 0.750000
s 0
usemtl Material
f 24/1/1 4/2/1 2/3/1
f 16/4/2 13/5/2 15/6/2
f 20/7/3 21/1/3 1/8/3
f 17/9/4 18/8/4 3/10/4
f 5/11/5 8/6/5 6/1/5
f 11/12/6 10/4/6 9/11/6
f 24/1/1 23/6/1 4/2/1
f 16/4/2 14/13/2 13/5/2
f 20/7/3 22/11/3 21/1/3
f 17/9/4 19/7/4 18/8/4
f 5/11/5 7/4/5 8/6/5
f 11/12/6 12/14/6 10/4/6
usemtl Material.001
f 48/1/1 28/2/1 26/3/1
f 40/4/2 37/5/2 39/6/2
f 44/7/3 45/1/3 25/8/3
f 41/9/4 42/8/4 27/10/4
f 29/11/5 32/6/5 30/1/5
f 35/12/6 34/4/6 33/11/6
f 48/1/1 47/6/1 28/2/1
f 40/4/2 38/13/2 37/5/2
f 44/7/3 46/11/3 45/1/3
f 41/9/4 43/7/4 42/8/4
f 29/11/5 31/4/5 32/6/5
f 35/12/6 36/14/6 34/4/6
usemtl Material.002
f 72/1/1 52/2/1 50/3/1
f 64/4/2 61/5/2 63/6/2
f 68/7/3 69/1/3 49/8/3
f 65/9/4 66/8/4 51/10/4
f 53/11/5 56/6/5 54/1/5
f 59/12/6 58/4/6 57/11/6
f 72/1/1 71/6/1 52/2/1
f 64/4/2 62/13/2 61/5/2
f 68/7/3 70/11/3 69/1/3
f 65/9/4 67/7/4 66/8/4
f 53/11/5 55/4/5 56/6/5
f 59/12/6 60/14/6 58/4/6
usemtl Material.003
f 96/1/2 76/2/2 74/3/2
f 88/4/6 85/5/6 87/6/6
f 92/7/1 93/1/1 73/8/1
f 89/9/4 90/8/4 75/10/4
f 77/11/5 80/6/5 78/1/5
f 83/12/3 82/4/3 81/11/3
f 96/1/2 95/6/2 76/2/2
f 88/4/6 86/13/6 85/5/6
f 92/7/1 94/11/1 93/1/1
f 89/9/4 91/7/4 90/8/4
f 77/11/5 79/4/5 80/6/5
f 83/12/3 84/14/3 82/4/3
usemtl Material.004
f 120/1/2 100/2/2 98/3/2
f 112/4/6 109/5/6 111/6/6
f 116/7/1 117/1/1 97/8/1
f 113/9/4 114/8/4 99/10/4
f 101/11/5 104/6/5 102/1/5
f 107/12/3 106/4/3 105/11/3
f 120/1/2 119/6/2 100/2/2
f 112/4/6 110/13/6 109/5/6
f 116/7/1 118/11/1 117/1/1
f 113/9/4 115/7/4 114/8/4
f 101/11/5 103/4/5 104/6/5
f 107/12/3 108/14/3 106/4/3
usemtl Material.005
f 144/1/7 124/2/7 122/3/7
f 136/4/8 133/5/8 135/6/8
f 140/7/9 141/1/9 121/8/9
f 137/9/4 138/8/4 123/10/4
f 126/1/5 127/4/5 128/6/5
f 131/12/10 130/4/10 129/11/10
f 144/1/7 143/6/7 124/2/7
f 136/4/8 134/13/8 133/5/8
f 140/7/9 142/11/9 141/1/9
f 137/9/4 139/7/4 138/8/4
f 126/1/5 125/11/5 127/4/5
f 131/12/10 132/14/10 130/4/10
usemtl Material.006
f 168/1/7 148/2/7 146/3/7
f 160/4/8 157/5/8 159/6/8
f 164/7/9 165/1/9 145/8/9
f 161/9/4 162/8/4 147/10/4
f 150/1/5 151/4/5 152/6/5
f 155/12/10 154/4/10 153/11/10
f 168/1/7 167/6/7 148/2/7
f 160/4/8 158/13/8 157/5/8
f 164/7/9 166/11/9 165/1/9
f 161/9/4 163/7/4 162/8/4
f 150/1/5 149/11/5 151/4/5
f 155/12/10 156/14/10 154/4/10
usemtl Material.007
f 192/1/9 172/2/9 170/3/9
f 184/4/7 181/5/7 183/6/7
f 188/7/10 189/1/10 169/8/10
f 171/10/4 187/7/4 186/8/4
f 173/11/5 176/6/5 174/1/5
f 179/12/8 178/4/8 177/11/8
f 192/1/9 191/6/9 172/2/9
f 184/4/7 182/13/7 181/5/7
f 188/7/10 190/11/10 189/1/10
f 171/10/4 185/9/4 187/7/4
f 173/11/5 175/4/5 176/6/5
f 179/12/8 180/14/8 178/4/8
usemtl Material.008
f 216/1/9 196/2/9 194/3/9
f 208/4/7 205/5/7 207/6/7
f 212/7/10 213/1/10 193/8/10
f 195/10/4 211/7/4 210/8/4
f 197/11/5 200/6/5 198/1/5
f 203/12/8 202/4/8 201/11/8
f 216/1/9 215/6/9 196/2/9
f 208/4/7 206/13/7 205/5/7
f 212/7/10 214/11/10 213/1/10
f 195/10/4 209/9/4 211/7/4
f 197/11/5 199/4/5 200/6/5
f 203/12/8 204/14/8 202/4/8
